<svg xmlns="http://www.w3.org/2000/svg" viewBox="0 0 1200 730"><defs>
<linearGradient id="sd" x1="0" y1="0" x2="0" y2="1"><stop offset="0" stop-color="#9fd0ee"/><stop offset=".7" stop-color="#e9efe0"/><stop offset="1" stop-color="#f8e3ae"/></linearGradient>
<linearGradient id="sk" x1="0" y1="0" x2="0" y2="1"><stop offset="0" stop-color="#1c2a58"/><stop offset=".55" stop-color="#8a5a8c"/><stop offset="1" stop-color="#f4a95f"/></linearGradient>
<linearGradient id="lw" x1="0" y1="0" x2="0" y2="1"><stop offset="0" stop-color="#86b052"/><stop offset="1" stop-color="#2f5a2a"/></linearGradient>
<linearGradient id="wl" x1="0" y1="0" x2="0" y2="1"><stop offset="0" stop-color="#2f4a52"/><stop offset="1" stop-color="#1d2f38"/></linearGradient>
<linearGradient id="fl" x1="0" y1="0" x2="0" y2="1"><stop offset="0" stop-color="#9a7048"/><stop offset="1" stop-color="#5b3d25"/></linearGradient>
<linearGradient id="sh" x1="0" y1="0" x2="0" y2="1"><stop offset="0" stop-color="#fff3cf" stop-opacity=".75"/><stop offset="1" stop-color="#fff3cf" stop-opacity=".05"/></linearGradient>
<linearGradient id="gl" x1="0" y1="0" x2="1" y2="1"><stop offset="0" stop-color="#fff" stop-opacity=".28"/><stop offset=".45" stop-color="#fff" stop-opacity="0"/><stop offset="1" stop-color="#fff" stop-opacity=".12"/></linearGradient>
<radialGradient id="sun"><stop offset="0" stop-color="#fffbe6"/><stop offset=".25" stop-color="#ffe9a8" stop-opacity=".8"/><stop offset="1" stop-color="#ffe9a8" stop-opacity="0"/></radialGradient>
<radialGradient id="gw"><stop offset="0" stop-color="#ffd48a" stop-opacity=".95"/><stop offset="1" stop-color="#ffd48a" stop-opacity="0"/></radialGradient>
<radialGradient id="vg" cx=".5" cy=".5" r=".75"><stop offset=".6" stop-color="#000" stop-opacity="0"/><stop offset="1" stop-color="#000" stop-opacity=".5"/></radialGradient>
</defs><rect width="1200" height="730" fill="url(#wl)"/><rect width="1200" height="73.0" fill="#000" opacity=".1"/><rect x="300.0" y="63.599999999999994" width="600.0" height="462.0" fill="#f7f1e4" stroke="#00000022"/><clipPath id="c1"><rect x="324.0" y="87.6" width="552.0" height="438.0"/></clipPath><g clip-path="url(#c1)"><rect x="324.0" y="87.6" width="552.0" height="438.0" fill="url(#sd)"/><circle cx="666.24" cy="219.0" r="153.29999999999998" fill="url(#sun)"/><path d="M324.0 359.15999999999997 Q462.0 306.6 600.0 350.4 T876.0 341.64 V525.6 H324.0 Z" fill="#7fa08a"/><circle cx="502.75568618790567" cy="314.5286325814718" r="46.237650943401924" fill="#3d6b34"/><circle cx="484.2606258105449" cy="337.6474580531728" r="36.99012075472154" fill="#3d6b34"/><circle cx="363.9848302404836" cy="334.7659581463596" r="37.49202219253988" fill="#3d6b34"/><circle cx="348.9880213634676" cy="353.51196924262956" r="29.993617754031902" fill="#3d6b34"/><circle cx="356.01540647563814" cy="333.27082213643587" r="27.42961688783126" fill="#3d6b34"/><circle cx="345.04355972050564" cy="346.9856305803515" r="21.943693510265007" fill="#3d6b34"/><circle cx="563.372417381637" cy="310.27160106308196" r="29.061260989122903" fill="#3d6b34"/><circle cx="551.7479129859878" cy="324.80223155764344" r="23.249008791298323" fill="#3d6b34"/><circle cx="558.3345924066678" cy="350.0593476727623" r="30.075768128848132" fill="#3d6b34"/><circle cx="546.3042851551285" cy="365.0972317371864" r="24.060614503078508" fill="#3d6b34"/><circle cx="447.227908463072" cy="339.5778901696378" r="55.33675617573179" fill="#3d6b34"/><circle cx="425.0932059927793" cy="367.2462682575037" r="44.26940494058544" fill="#3d6b34"/><circle cx="642.5608276368592" cy="327.449525747645" r="56.211981537478934" fill="#3d6b34"/><circle cx="620.0760350218677" cy="355.55551651638444" r="44.96958522998315" fill="#3d6b34"/><circle cx="349.71363970100145" cy="351.7211022075986" r="35.15942071892919" fill="#3d6b34"/><circle cx="335.64987141342976" cy="369.3008125670632" r="28.127536575143353" fill="#3d6b34"/><circle cx="403.6288060133055" cy="312.791160033399" r="35.73805272696531" fill="#3d6b34"/><circle cx="389.3335849225194" cy="330.66018639688167" r="28.590442181572246" fill="#3d6b34"/><rect x="324.0" y="402.96000000000004" width="552.0" height="122.64000000000001" fill="url(#lw)"/></g><rect x="324.0" y="87.6" width="138.0" height="438.0" fill="#bfd9e8" fill-opacity=".10" stroke="#f2ecdf" stroke-width="9.936"/><line x1="328.968" x2="457.032" y1="141.91199999999998" y2="141.91199999999998" stroke="#f2ecdf" stroke-opacity=".9" stroke-width="2.7324"/><line x1="328.968" x2="457.032" y1="178.70399999999998" y2="178.70399999999998" stroke="#f2ecdf" stroke-opacity=".9" stroke-width="2.7324"/><line x1="328.968" x2="457.032" y1="215.49599999999998" y2="215.49599999999998" stroke="#f2ecdf" stroke-opacity=".9" stroke-width="2.7324"/><line x1="328.968" x2="457.032" y1="252.28799999999995" y2="252.28799999999995" stroke="#f2ecdf" stroke-opacity=".9" stroke-width="2.7324"/><line x1="328.968" x2="457.032" y1="289.08" y2="289.08" stroke="#f2ecdf" stroke-opacity=".9" stroke-width="2.7324"/><line x1="328.968" x2="457.032" y1="325.87199999999996" y2="325.87199999999996" stroke="#f2ecdf" stroke-opacity=".9" stroke-width="2.7324"/><line x1="328.968" x2="457.032" y1="362.664" y2="362.664" stroke="#f2ecdf" stroke-opacity=".9" stroke-width="2.7324"/><line x1="328.968" x2="457.032" y1="399.45599999999996" y2="399.45599999999996" stroke="#f2ecdf" stroke-opacity=".9" stroke-width="2.7324"/><line x1="328.968" x2="457.032" y1="436.24799999999993" y2="436.24799999999993" stroke="#f2ecdf" stroke-opacity=".9" stroke-width="2.7324"/><rect x="324.0" y="494.94000000000005" width="138.0" height="30.660000000000004" fill="#f2ecdf"/><rect x="324.0" y="87.6" width="138.0" height="438.0" fill="url(#gl)"/><rect x="462.0" y="87.6" width="138.0" height="438.0" fill="#bfd9e8" fill-opacity=".10" stroke="#f2ecdf" stroke-width="9.936"/><line x1="466.968" x2="595.032" y1="141.91199999999998" y2="141.91199999999998" stroke="#f2ecdf" stroke-opacity=".9" stroke-width="2.7324"/><line x1="466.968" x2="595.032" y1="178.70399999999998" y2="178.70399999999998" stroke="#f2ecdf" stroke-opacity=".9" stroke-width="2.7324"/><line x1="466.968" x2="595.032" y1="215.49599999999998" y2="215.49599999999998" stroke="#f2ecdf" stroke-opacity=".9" stroke-width="2.7324"/><line x1="466.968" x2="595.032" y1="252.28799999999995" y2="252.28799999999995" stroke="#f2ecdf" stroke-opacity=".9" stroke-width="2.7324"/><line x1="466.968" x2="595.032" y1="289.08" y2="289.08" stroke="#f2ecdf" stroke-opacity=".9" stroke-width="2.7324"/><line x1="466.968" x2="595.032" y1="325.87199999999996" y2="325.87199999999996" stroke="#f2ecdf" stroke-opacity=".9" stroke-width="2.7324"/><line x1="466.968" x2="595.032" y1="362.664" y2="362.664" stroke="#f2ecdf" stroke-opacity=".9" stroke-width="2.7324"/><line x1="466.968" x2="595.032" y1="399.45599999999996" y2="399.45599999999996" stroke="#f2ecdf" stroke-opacity=".9" stroke-width="2.7324"/><line x1="466.968" x2="595.032" y1="436.24799999999993" y2="436.24799999999993" stroke="#f2ecdf" stroke-opacity=".9" stroke-width="2.7324"/><rect x="462.0" y="494.94000000000005" width="138.0" height="30.660000000000004" fill="#f2ecdf"/><rect x="462.0" y="87.6" width="138.0" height="438.0" fill="url(#gl)"/><rect x="600.0" y="87.6" width="138.0" height="438.0" fill="#bfd9e8" fill-opacity=".10" stroke="#f2ecdf" stroke-width="9.936"/><line x1="604.968" x2="733.032" y1="141.91199999999998" y2="141.91199999999998" stroke="#f2ecdf" stroke-opacity=".9" stroke-width="2.7324"/><line x1="604.968" x2="733.032" y1="178.70399999999998" y2="178.70399999999998" stroke="#f2ecdf" stroke-opacity=".9" stroke-width="2.7324"/><line x1="604.968" x2="733.032" y1="215.49599999999998" y2="215.49599999999998" stroke="#f2ecdf" stroke-opacity=".9" stroke-width="2.7324"/><line x1="604.968" x2="733.032" y1="252.28799999999995" y2="252.28799999999995" stroke="#f2ecdf" stroke-opacity=".9" stroke-width="2.7324"/><line x1="604.968" x2="733.032" y1="289.08" y2="289.08" stroke="#f2ecdf" stroke-opacity=".9" stroke-width="2.7324"/><line x1="604.968" x2="733.032" y1="325.87199999999996" y2="325.87199999999996" stroke="#f2ecdf" stroke-opacity=".9" stroke-width="2.7324"/><line x1="604.968" x2="733.032" y1="362.664" y2="362.664" stroke="#f2ecdf" stroke-opacity=".9" stroke-width="2.7324"/><line x1="604.968" x2="733.032" y1="399.45599999999996" y2="399.45599999999996" stroke="#f2ecdf" stroke-opacity=".9" stroke-width="2.7324"/><line x1="604.968" x2="733.032" y1="436.24799999999993" y2="436.24799999999993" stroke="#f2ecdf" stroke-opacity=".9" stroke-width="2.7324"/><rect x="600.0" y="494.94000000000005" width="138.0" height="30.660000000000004" fill="#f2ecdf"/><rect x="600.0" y="87.6" width="138.0" height="438.0" fill="url(#gl)"/><rect x="738.0" y="87.6" width="138.0" height="438.0" fill="#bfd9e8" fill-opacity=".10" stroke="#f2ecdf" stroke-width="9.936"/><line x1="742.968" x2="871.032" y1="141.91199999999998" y2="141.91199999999998" stroke="#f2ecdf" stroke-opacity=".9" stroke-width="2.7324"/><line x1="742.968" x2="871.032" y1="178.70399999999998" y2="178.70399999999998" stroke="#f2ecdf" stroke-opacity=".9" stroke-width="2.7324"/><line x1="742.968" x2="871.032" y1="215.49599999999998" y2="215.49599999999998" stroke="#f2ecdf" stroke-opacity=".9" stroke-width="2.7324"/><line x1="742.968" x2="871.032" y1="252.28799999999995" y2="252.28799999999995" stroke="#f2ecdf" stroke-opacity=".9" stroke-width="2.7324"/><line x1="742.968" x2="871.032" y1="289.08" y2="289.08" stroke="#f2ecdf" stroke-opacity=".9" stroke-width="2.7324"/><line x1="742.968" x2="871.032" y1="325.87199999999996" y2="325.87199999999996" stroke="#f2ecdf" stroke-opacity=".9" stroke-width="2.7324"/><line x1="742.968" x2="871.032" y1="362.664" y2="362.664" stroke="#f2ecdf" stroke-opacity=".9" stroke-width="2.7324"/><line x1="742.968" x2="871.032" y1="399.45599999999996" y2="399.45599999999996" stroke="#f2ecdf" stroke-opacity=".9" stroke-width="2.7324"/><line x1="742.968" x2="871.032" y1="436.24799999999993" y2="436.24799999999993" stroke="#f2ecdf" stroke-opacity=".9" stroke-width="2.7324"/><rect x="738.0" y="494.94000000000005" width="138.0" height="30.660000000000004" fill="#f2ecdf"/><rect x="738.0" y="87.6" width="138.0" height="438.0" fill="url(#gl)"/><rect x="580.128" y="289.08000000000004" width="8.942400000000001" height="52.559999999999995" rx="2" fill="#c9a45c"/><rect x="610.9296" y="289.08000000000004" width="8.942400000000001" height="52.559999999999995" rx="2" fill="#c9a45c"/><rect x="314.064" y="77.66399999999999" width="571.872" height="447.936" fill="none" stroke="#f2ecdf" stroke-width="14.904"/><rect y="569.4" width="1200" height="160.60000000000002" fill="url(#fl)"/><line x1="0" x2="1200" y1="576.8097921815648" y2="576.8097921815648" stroke="#000" stroke-opacity=".14"/><line x1="0" x2="1200" y1="588.954558801516" y2="588.954558801516" stroke="#000" stroke-opacity=".14"/><line x1="0" x2="1200" y1="603.8965596017823" y2="603.8965596017823" stroke="#000" stroke-opacity=".14"/><line x1="0" x2="1200" y1="621.0047900605482" y2="621.0047900605482" stroke="#000" stroke-opacity=".14"/><line x1="0" x2="1200" y1="639.9284003575107" y2="639.9284003575107" stroke="#000" stroke-opacity=".14"/><line x1="0" x2="1200" y1="660.4369665780009" y2="660.4369665780009" stroke="#000" stroke-opacity=".14"/><line x1="0" x2="1200" y1="682.3648379741871" y2="682.3648379741871" stroke="#000" stroke-opacity=".14"/><line x1="0" x2="1200" y1="705.5858574373357" y2="705.5858574373357" stroke="#000" stroke-opacity=".14"/><rect y="561.4" width="1200" height="9" fill="#f4eee2"/><polygon points="351.6,569.4 848.4,569.4 1041.6,730 158.4,730" fill="url(#sh)" opacity=".55"/><line x1="194.0" x2="1006.0" y1="47.599999999999994" y2="47.599999999999994" stroke="#c9a45c" stroke-width="5"/><rect x="214.0" y="51.599999999999994" width="95" height="511.79999999999995" fill="#2b3036" opacity=".92"/><line x1="224.55555555555554" x2="227.55555555555554" y1="51.599999999999994" y2="563.4" stroke="#000" stroke-opacity=".12" stroke-width="3"/><line x1="235.11111111111111" x2="232.11111111111111" y1="51.599999999999994" y2="563.4" stroke="#000" stroke-opacity=".12" stroke-width="3"/><line x1="245.66666666666666" x2="248.66666666666666" y1="51.599999999999994" y2="563.4" stroke="#000" stroke-opacity=".12" stroke-width="3"/><line x1="256.22222222222223" x2="253.22222222222223" y1="51.599999999999994" y2="563.4" stroke="#000" stroke-opacity=".12" stroke-width="3"/><line x1="266.77777777777777" x2="269.77777777777777" y1="51.599999999999994" y2="563.4" stroke="#000" stroke-opacity=".12" stroke-width="3"/><line x1="277.3333333333333" x2="274.3333333333333" y1="51.599999999999994" y2="563.4" stroke="#000" stroke-opacity=".12" stroke-width="3"/><line x1="287.8888888888889" x2="290.8888888888889" y1="51.599999999999994" y2="563.4" stroke="#000" stroke-opacity=".12" stroke-width="3"/><line x1="298.44444444444446" x2="295.44444444444446" y1="51.599999999999994" y2="563.4" stroke="#000" stroke-opacity=".12" stroke-width="3"/><rect x="891.0" y="51.599999999999994" width="95" height="511.79999999999995" fill="#2b3036" opacity=".92"/><line x1="901.5555555555555" x2="904.5555555555555" y1="51.599999999999994" y2="563.4" stroke="#000" stroke-opacity=".12" stroke-width="3"/><line x1="912.1111111111111" x2="909.1111111111111" y1="51.599999999999994" y2="563.4" stroke="#000" stroke-opacity=".12" stroke-width="3"/><line x1="922.6666666666666" x2="925.6666666666666" y1="51.599999999999994" y2="563.4" stroke="#000" stroke-opacity=".12" stroke-width="3"/><line x1="933.2222222222222" x2="930.2222222222222" y1="51.599999999999994" y2="563.4" stroke="#000" stroke-opacity=".12" stroke-width="3"/><line x1="943.7777777777778" x2="946.7777777777778" y1="51.599999999999994" y2="563.4" stroke="#000" stroke-opacity=".12" stroke-width="3"/><line x1="954.3333333333334" x2="951.3333333333334" y1="51.599999999999994" y2="563.4" stroke="#000" stroke-opacity=".12" stroke-width="3"/><line x1="964.8888888888889" x2="967.8888888888889" y1="51.599999999999994" y2="563.4" stroke="#000" stroke-opacity=".12" stroke-width="3"/><line x1="975.4444444444445" x2="972.4444444444445" y1="51.599999999999994" y2="563.4" stroke="#000" stroke-opacity=".12" stroke-width="3"/><ellipse cx="600.0" cy="657.0" rx="360.0" ry="43.8" fill="#3a3f45" opacity=".85"/><ellipse cx="204.0" cy="682.8399999999999" rx="171.60000000000002" ry="15.600000000000001" fill="#000" opacity=".3"/><rect x="48.0" y="561.1599999999999" width="312.0" height="62.400000000000006" rx="14" fill="#6b7a6c"/><rect x="35.519999999999996" y="592.3599999999999" width="31.200000000000003" height="68.64" rx="10" fill="#6b7a6c"/><rect x="341.28" y="592.3599999999999" width="31.200000000000003" height="68.64" rx="10" fill="#6b7a6c"/><rect x="60.480000000000004" y="614.1999999999999" width="287.04" height="43.68000000000001" rx="10" fill="#6b7a6c" stroke="#000" stroke-opacity=".12"/><rect x="79.2" y="576.7599999999999" width="62.400000000000006" height="40.56" rx="8" fill="#e7d7bb"/><rect x="266.4" y="576.7599999999999" width="62.400000000000006" height="40.56" rx="8" fill="#b9825e"/><circle cx="1080.0" cy="332.15" r="182.5" fill="url(#gw)" opacity=".55"/><line x1="1080.0" y1="386.9" x2="999.7" y2="642.4" stroke="#2a2420" stroke-width="4"/><line x1="1080.0" y1="386.9" x2="1080.0" y2="642.4" stroke="#2a2420" stroke-width="4"/><line x1="1080.0" y1="386.9" x2="1160.3" y2="642.4" stroke="#2a2420" stroke-width="4"/><path d="M1014.3 386.9 L1043.5 277.4 H1116.5 L1145.7 386.9Z" fill="#efe3c9"/><path d="M955.5299999999999 627.8 L965.0199999999999 570.8599999999999 H1002.9799999999999 L1012.4699999999999 627.8Z" fill="#d9d2c4"/><ellipse cx="912.6585362299337" cy="535.1565172382333" rx="17.082" ry="64.53200000000001" transform="rotate(-70 912.6585362299337 535.1565172382333)" fill="#2f5d3a"/><ellipse cx="933.1996043652354" cy="493.2831116684147" rx="17.082" ry="64.53200000000001" transform="rotate(-42 933.1996043652354 493.2831116684147)" fill="#2f5d3a"/><ellipse cx="965.6332896860731" cy="469.5708291340486" rx="17.082" ry="64.53200000000001" transform="rotate(-14 965.6332896860731 469.5708291340486)" fill="#2f5d3a"/><ellipse cx="1002.3667103139267" cy="469.5708291340486" rx="17.082" ry="64.53200000000001" transform="rotate(14 1002.3667103139267 469.5708291340486)" fill="#2f5d3a"/><ellipse cx="1034.8003956347643" cy="493.2831116684147" rx="17.082" ry="64.53200000000001" transform="rotate(42 1034.8003956347643 493.2831116684147)" fill="#2f5d3a"/><ellipse cx="1055.341463770066" cy="535.1565172382333" rx="17.082" ry="64.53200000000001" transform="rotate(70 1055.341463770066 535.1565172382333)" fill="#2f5d3a"/><rect width="1200" height="730" fill="url(#vg)"/></svg>